<svg width="249" height="59" viewBox="0 0 249 59" fill="none" xmlns="http://www.w3.org/2000/svg">
<path d="M75.0171 58.2748V52.266H79.7356V28.0237H75.0171V22.0149H93.4807C95.669 22.0149 97.5667 22.3948 99.1737 23.1545C100.815 23.8797 102.08 24.933 102.969 26.3143C103.892 27.6611 104.354 29.2842 104.354 31.1835V31.7015C104.354 33.3591 104.046 34.7231 103.431 35.7937C102.815 36.8297 102.08 37.6412 101.225 38.2283C100.405 38.7808 99.6182 39.1779 98.8659 39.4197V40.3521C99.6182 40.5593 100.439 40.9564 101.328 41.5435C102.217 42.096 102.969 42.9075 103.584 43.978C104.234 45.0486 104.559 46.4472 104.559 48.1738V48.6918C104.559 50.6948 104.097 52.4214 103.174 53.8718C102.251 55.2877 100.969 56.3755 99.3275 57.1352C97.7205 57.8949 95.84 58.2748 93.6859 58.2748H75.0171ZM86.5056 52.0588H92.8653C94.3355 52.0588 95.5151 51.6962 96.4041 50.971C97.3273 50.2458 97.7889 49.2098 97.7889 47.863V47.345C97.7889 45.9982 97.3444 44.9622 96.4554 44.237C95.5664 43.5118 94.3697 43.1493 92.8653 43.1493H86.5056V52.0588ZM86.5056 36.9333H92.7627C94.1646 36.9333 95.31 36.5707 96.199 35.8455C97.1221 35.1203 97.5837 34.1188 97.5837 32.8411V32.3231C97.5837 31.0108 97.1393 30.0094 96.2503 29.3187C95.3613 28.5935 94.1987 28.2309 92.7627 28.2309H86.5056V36.9333Z" fill="white"/>
<path d="M108.768 58.2748V32.5821H115.23V58.2748H108.768ZM111.999 29.5777C110.836 29.5777 109.845 29.1978 109.024 28.4381C108.238 27.6784 107.845 26.6769 107.845 25.4337C107.845 24.1905 108.238 23.1891 109.024 22.4293C109.845 21.6696 110.836 21.2897 111.999 21.2897C113.196 21.2897 114.187 21.6696 114.974 22.4293C115.76 23.1891 116.153 24.1905 116.153 25.4337C116.153 26.6769 115.76 27.6784 114.974 28.4381C114.187 29.1978 113.196 29.5777 111.999 29.5777Z" fill="white"/>
<path d="M120.852 58.2748V22.0149H127.315V58.2748H120.852Z" fill="white"/>
<path d="M132.937 58.2748V22.0149H139.399V58.2748H132.937Z" fill="white"/>
<path d="M144.817 58.2748V22.0149H167.896V28.2309H151.587V36.8815H166.46V43.0975H151.587V52.0588H168.204V58.2748H144.817Z" fill="white"/>
<path d="M179.78 59C177.968 59 176.344 58.6892 174.908 58.0676C173.472 57.4115 172.326 56.4791 171.472 55.2704C170.651 54.0272 170.241 52.525 170.241 50.7638C170.241 49.0026 170.651 47.535 171.472 46.3608C172.326 45.1522 173.489 44.2543 174.959 43.6673C176.464 43.0457 178.173 42.7349 180.088 42.7349H187.063V41.2845C187.063 40.0758 186.687 39.0916 185.935 38.3319C185.183 37.5376 183.986 37.1405 182.345 37.1405C180.738 37.1405 179.541 37.5203 178.754 38.2801C177.968 39.0053 177.455 39.9549 177.216 41.1291L171.266 39.1089C171.677 37.7966 172.326 36.6052 173.215 35.5347C174.139 34.4296 175.352 33.549 176.857 32.8929C178.395 32.2022 180.259 31.8569 182.447 31.8569C185.798 31.8569 188.448 32.7029 190.397 34.3951C192.346 36.0872 193.32 38.5391 193.32 41.7507V51.3336C193.32 52.3696 193.799 52.8876 194.756 52.8876H196.808V58.2748H192.5C191.234 58.2748 190.192 57.964 189.371 57.3424C188.55 56.7208 188.14 55.892 188.14 54.856V54.8042H187.166C187.029 55.2186 186.721 55.7711 186.242 56.4618C185.764 57.1179 185.012 57.705 183.986 58.223C182.96 58.741 181.558 59 179.78 59ZM180.909 53.7164C182.721 53.7164 184.191 53.2157 185.319 52.2142C186.482 51.1782 187.063 49.8142 187.063 48.122V47.604H180.55C179.353 47.604 178.413 47.863 177.729 48.381C177.045 48.899 176.703 49.6242 176.703 50.5566C176.703 51.489 177.062 52.2488 177.78 52.8358C178.498 53.4229 179.541 53.7164 180.909 53.7164Z" fill="white"/>
<path d="M210.359 59C207.042 59 204.324 58.2748 202.204 56.8244C200.084 55.374 198.802 53.302 198.358 50.6084L204.307 49.0544C204.546 50.2631 204.94 51.2128 205.487 51.9034C206.068 52.5941 206.769 53.0948 207.589 53.4056C208.444 53.6819 209.367 53.82 210.359 53.82C211.863 53.82 212.975 53.561 213.693 53.043C214.411 52.4905 214.77 51.8171 214.77 51.0228C214.77 50.2286 214.428 49.6242 213.744 49.2098C213.06 48.7609 211.966 48.3983 210.462 48.122L209.025 47.863C207.248 47.5177 205.623 47.0515 204.153 46.4644C202.683 45.8428 201.503 44.9968 200.614 43.9262C199.725 42.8557 199.281 41.4744 199.281 39.7823C199.281 37.2268 200.204 35.2757 202.05 33.9289C203.897 32.5476 206.324 31.8569 209.333 31.8569C212.171 31.8569 214.53 32.4958 216.411 33.7735C218.292 35.0512 219.522 36.7261 220.104 38.7981L214.103 40.6629C213.829 39.3506 213.265 38.4182 212.41 37.8657C211.59 37.3131 210.564 37.0369 209.333 37.0369C208.102 37.0369 207.162 37.2613 206.512 37.7103C205.863 38.1247 205.538 38.7117 205.538 39.4715C205.538 40.3003 205.88 40.9219 206.564 41.3363C207.248 41.7161 208.171 42.0097 209.333 42.2169L210.769 42.4759C212.684 42.8212 214.411 43.2874 215.949 43.8744C217.522 44.427 218.753 45.2385 219.642 46.309C220.565 47.345 221.027 48.7609 221.027 50.5566C221.027 53.2502 220.052 55.3395 218.103 56.8244C216.189 58.2748 213.607 59 210.359 59Z" fill="white"/>
<path d="M236.742 59C234.212 59 231.972 58.4647 230.023 57.3942C228.109 56.2891 226.604 54.7524 225.51 52.784C224.45 50.7811 223.92 48.4328 223.92 45.7392V45.1176C223.92 42.4241 224.45 40.0931 225.51 38.1247C226.57 36.1217 228.057 34.585 229.972 33.5145C231.887 32.4094 234.109 31.8569 236.64 31.8569C239.136 31.8569 241.307 32.4267 243.153 33.5663C245 34.6713 246.436 36.2253 247.461 38.2283C248.487 40.1967 249 42.4931 249 45.1176V47.345H230.485C230.553 49.1062 231.203 50.5394 232.434 51.6444C233.665 52.7495 235.169 53.302 236.947 53.302C238.76 53.302 240.093 52.9049 240.948 52.1106C241.803 51.3164 242.452 50.4358 242.897 49.4688L248.179 52.266C247.701 53.1639 247 54.1481 246.077 55.2186C245.188 56.2546 243.991 57.1525 242.486 57.9122C240.982 58.6374 239.067 59 236.742 59ZM230.536 42.4759H242.435C242.298 40.9909 241.7 39.7995 240.64 38.9017C239.614 38.0038 238.264 37.5549 236.588 37.5549C234.845 37.5549 233.46 38.0038 232.434 38.9017C231.408 39.7995 230.776 40.9909 230.536 42.4759Z" fill="white"/>
<path d="M0.450193 0.85823C3.52763 0.262996 6.64539 -0.0619887 9.77994 0.00984991C10.9793 -0.0243589 12.1754 0.0337961 13.3647 0.184315C13.7342 0.232208 14.1038 0.262996 14.47 0.341676C16.4522 0.683765 18.5453 1.30979 19.953 2.85945C20.6249 3.55389 20.9944 4.47753 21.2229 5.41143C21.2565 5.84246 21.28 6.27349 21.317 6.70452C21.4346 7.32371 21.3842 7.96341 21.5152 8.58259C21.6496 10.0775 21.8881 11.6032 22.5399 12.9647C23.3832 14.4084 24.7069 15.5988 26.2926 16.1188C27.156 16.4506 28.0833 16.5225 28.9837 16.7004C29.4876 16.7346 30.0084 16.673 30.4922 16.8611C33.7981 16.9022 37.1006 16.844 40.4065 16.8919C43.0169 16.6901 45.6912 16.8646 48.1942 17.6856C50.3309 18.3732 52.3501 19.6457 53.6637 21.5238C54.6615 22.9024 55.2595 24.5684 55.4342 26.2652C55.75 28.0509 55.4678 29.8981 54.9 31.6017C54.769 31.9062 54.6514 32.2175 54.517 32.522C53.5528 34.4069 52.0141 35.9839 50.1596 36.9691C49.9513 37.0752 49.7396 37.1812 49.5347 37.2907C49.4238 37.3351 49.2054 37.4207 49.0979 37.4617C49.6388 37.8243 50.257 38.0467 50.8113 38.3922C50.9659 38.5017 51.1271 38.6043 51.285 38.7103C52.8506 39.8324 54.1508 41.3786 54.8328 43.2156C55.5552 45.0971 55.6627 47.1702 55.4073 49.1611C55.0479 51.4395 53.9056 53.5946 52.1686 55.0895C50.976 56.1569 49.5414 56.9095 48.043 57.4226C47.1796 57.7065 46.296 57.9255 45.3989 58.0623C44.9286 58.1547 44.4482 58.1718 43.9711 58.2128C43.8602 58.2299 43.6385 58.2641 43.5276 58.2812C39.4087 58.182 35.2898 58.2915 31.1675 58.2333C29.6086 58.052 28.0262 57.881 26.5647 57.2515C26.3161 57.1181 26.0608 56.9916 25.8088 56.8616C24.811 56.2834 23.9005 55.5206 23.2421 54.5559C22.2543 53.0131 22.2039 51.1042 22.0259 49.3288C21.8579 47.8544 21.9855 46.2773 21.233 44.9398C20.467 43.4346 18.935 42.5452 17.4097 42.0183C15.8777 41.5052 14.2718 41.2555 12.6726 41.1426C12.2392 41.0023 11.7823 41.0605 11.3388 41.0502C9.77994 41.0673 8.22442 41.0229 6.6689 41.0707C5.90626 41.276 5.10667 41.1255 4.34739 41.3171C2.92289 41.4505 1.50848 41.6899 0.110868 42.0149C-0.0134386 41.8233 0.00335965 41.5907 0 41.3752C0.0134386 38.3751 -0.0100789 35.3716 0.0100789 32.3714C1.94188 31.9199 3.91735 31.6975 5.87939 31.506C7.59953 31.5196 9.31631 31.1912 11.0398 31.4136C11.8495 31.5675 12.6894 31.4136 13.489 31.6257C14.2718 31.677 15.0344 31.8686 15.8004 32.0259C16.4287 32.2141 17.0536 32.4091 17.6583 32.6656C17.7389 32.7033 17.9002 32.7819 17.9842 32.8196C19.4591 33.538 20.7223 34.8208 21.1255 36.4697C21.2935 37.0786 21.2498 37.7183 21.3606 38.334C21.5186 40.2395 21.6395 42.2065 22.3753 43.9922C23.1177 45.6342 24.5725 46.8965 26.2153 47.5465C28.0463 48.2717 30.0353 48.2888 31.9603 48.5249C35.5552 48.5317 39.1534 48.5214 42.7515 48.5283C42.9934 48.5283 43.2454 48.5283 43.4638 48.3983C43.5411 48.3846 43.6956 48.3572 43.7729 48.3436C44.5725 48.0186 45.2713 47.4678 45.6912 46.6913C45.9499 46.0242 46.0473 45.3058 45.8559 44.6079C45.5871 43.9238 45.1705 43.2772 44.5355 42.9009C43.9375 42.5828 43.2824 42.2954 42.5936 42.3194C38.8947 42.3331 35.1957 42.3091 31.4967 42.2304C29.407 42.0423 27.1762 41.991 25.3385 40.8313C24.1727 40.089 23.1278 39.0285 22.681 37.6772C22.3013 36.5141 22.1535 35.2826 22.0964 34.0614C21.868 33.2745 22.0695 32.4433 21.8512 31.6565C21.8411 30.8526 21.6563 30.0623 21.3136 29.3337C20.8802 28.4785 20.2016 27.7738 19.4121 27.2504C19.1433 27.0896 18.8745 26.9288 18.6057 26.7749C18.3504 26.6722 18.0951 26.5696 17.8431 26.4533C17.4299 26.2925 17.0099 26.1488 16.5832 26.0428C15.2226 25.687 13.825 25.4612 12.424 25.427C11.6042 25.2491 10.7677 25.3176 9.9412 25.297C6.61515 25.3347 3.26558 25.557 0.0134386 26.3267C-0.00335965 23.1043 -0.00335965 19.8852 0.0134386 16.6627C3.88375 15.7972 7.87166 15.5475 11.826 15.7288C14.1441 15.9204 16.5564 16.218 18.5957 17.453C19.365 17.9216 20.047 18.5408 20.5241 19.3208C20.6282 19.5328 20.7358 19.7449 20.8433 19.9536C21.2296 20.9491 21.3438 22.0301 21.3506 23.094C21.5521 24.6642 21.6496 26.2686 22.1602 27.7806C22.3316 28.2766 22.56 28.7556 22.8557 29.1866C23.9173 30.7362 25.5904 31.7967 27.408 32.1662C29.528 32.5938 31.6949 32.7238 33.8518 32.6998C35.4073 32.7546 36.9662 32.758 38.5217 32.6998C39.9731 32.6964 41.4312 32.7204 42.8826 32.6485C43.9543 32.5493 45.0025 31.9507 45.5501 30.9894C46.1145 30.0726 46.0742 28.824 45.4728 27.9345C44.7942 26.8672 43.5075 26.3165 42.2812 26.3815C40.5107 26.4294 38.7368 26.4909 36.9629 26.5046C33.6502 26.5354 30.2772 26.7167 27.0351 25.8957C26.8335 25.8136 26.6319 25.7452 26.4304 25.6699C26.0507 25.4989 25.6778 25.3107 25.3082 25.1089C24.1727 24.3563 23.1749 23.3403 22.6944 22.0267C22.5701 21.623 22.4492 21.2159 22.3921 20.7986C22.1972 19.9776 22.13 19.1326 22.083 18.2911C21.868 17.5453 22.0662 16.7517 21.8612 16.0059C21.8108 15.462 21.794 14.9215 21.6193 14.4015C21.5622 14.2476 21.5085 14.0936 21.4614 13.9397C20.8029 12.4277 19.4255 11.3672 17.9372 10.7891C16.1398 10.0604 14.1979 9.82779 12.2862 9.6807C8.71829 9.48913 5.12682 9.66701 1.60255 10.2691C1.07173 10.3615 0.550982 10.5325 0.0067193 10.5222C0.00335965 7.44344 0.0067193 4.36464 0.0067193 1.28584C-0.0369561 1.01559 0.241895 0.906122 0.450193 0.85823Z" fill="white"/>
</svg>
