<svg width="25" height="25" viewBox="0 0 25 25" fill="none" xmlns="http://www.w3.org/2000/svg">
<path d="M0 12.5C0 19.4167 5.58333 25 12.5 25C19.4167 25 25 19.4167 25 12.5C25 5.58333 19.4167 0 12.5 0C5.58333 0 0 5.58333 0 12.5Z" fill="#FFDD67"/>
<path d="M19.375 5.95833C19.375 10.0833 25 10.0833 25 5.95833C25 2.95833 22.2083 0 22.2083 0C22.2083 0 19.375 2.95833 19.375 5.95833Z" fill="#65B1EF"/>
<path d="M17.2918 16.25C18.4424 16.25 19.3752 15.3173 19.3752 14.1667C19.3752 13.0161 18.4424 12.0834 17.2918 12.0834C16.1412 12.0834 15.2085 13.0161 15.2085 14.1667C15.2085 15.3173 16.1412 16.25 17.2918 16.25Z" fill="#664E27"/>
<path d="M7.70833 16.25C8.85893 16.25 9.79167 15.3173 9.79167 14.1667C9.79167 13.0161 8.85893 12.0834 7.70833 12.0834C6.55774 12.0834 5.625 13.0161 5.625 14.1667C5.625 15.3173 6.55774 16.25 7.70833 16.25Z" fill="#664E27"/>
<path d="M9.83324 8.29165C8.49991 9.41665 6.70824 9.91665 4.95824 9.58331C4.70824 9.54165 4.49991 10.4166 4.79158 10.5C6.79158 10.875 8.87491 10.2916 10.4166 8.99998C10.6249 8.79165 9.99991 8.12498 9.83324 8.29165ZM20.0416 9.54165C18.2916 9.83331 16.4999 9.37498 15.1666 8.24998C14.9999 8.08331 14.3332 8.74998 14.5832 8.95831C16.1249 10.2916 18.2082 10.8333 20.2082 10.4583C20.4999 10.375 20.2916 9.49998 20.0416 9.54165Z" fill="#917524"/>
<path d="M15.8332 20.8333H9.1665C8.5415 20.8333 8.5415 19.1666 9.1665 19.1666H15.8332C16.4582 19.1666 16.4582 20.8333 15.8332 20.8333Z" fill="#664E27"/>
</svg>
