<svg width="103" height="103" viewBox="0 0 103 103" fill="none" xmlns="http://www.w3.org/2000/svg">
<path d="M47.2942 83.6875H32.1875C29.5267 83.6875 27.1663 83.6017 25.0634 83.3012C13.7763 82.0567 10.7292 76.735 10.7292 62.2292V40.7708C10.7292 26.265 13.7763 20.9433 25.0634 19.6988C27.1663 19.3983 29.5267 19.3125 32.1875 19.3125H47.0367" stroke="#5E43D8" stroke-width="1.5" stroke-linecap="round" stroke-linejoin="round"/>
<path d="M64.4608 19.3125H70.8125C73.4733 19.3125 75.8337 19.3983 77.9366 19.6988C89.2237 20.9433 92.2708 26.265 92.2708 40.7708V62.2292C92.2708 76.735 89.2237 82.0567 77.9366 83.3012C75.8337 83.6017 73.4733 83.6875 70.8125 83.6875H64.4608" stroke="#5E43D8" stroke-width="1.5" stroke-linecap="round" stroke-linejoin="round"/>
<path d="M64.375 8.58334V94.4167" stroke="#5E43D8" stroke-width="1.5" stroke-linecap="round" stroke-linejoin="round"/>
<path d="M47.6138 51.5H47.6524" stroke="#5E43D8" stroke-width="2" stroke-linecap="round" stroke-linejoin="round"/>
<path d="M30.4472 51.5H30.4857" stroke="#5E43D8" stroke-width="2" stroke-linecap="round" stroke-linejoin="round"/>
</svg>
