<svg width="103" height="103" viewBox="0 0 103 103" fill="none" xmlns="http://www.w3.org/2000/svg">
<path d="M72.9583 94.4167H30.0416C12.875 94.4167 8.58331 90.125 8.58331 72.9583V64.375C8.58331 47.2083 12.875 42.9167 30.0416 42.9167H72.9583C90.125 42.9167 94.4166 47.2083 94.4166 64.375V72.9583C94.4166 90.125 90.125 94.4167 72.9583 94.4167Z" stroke="#5E43D8" stroke-width="1.5" stroke-linecap="round" stroke-linejoin="round"/>
<path d="M25.75 42.9167V34.3333C25.75 20.1279 30.0417 8.58334 51.5 8.58334C70.8125 8.58334 77.25 17.1667 77.25 30.0417" stroke="#5E43D8" stroke-width="1.5" stroke-linecap="round" stroke-linejoin="round"/>
<path d="M51.5 79.3958C57.4255 79.3958 62.2291 74.5922 62.2291 68.6667C62.2291 62.7411 57.4255 57.9375 51.5 57.9375C45.5744 57.9375 40.7708 62.7411 40.7708 68.6667C40.7708 74.5922 45.5744 79.3958 51.5 79.3958Z" stroke="#5E43D8" stroke-width="1.5" stroke-linecap="round" stroke-linejoin="round"/>
</svg>
